<?xml version="1.0" encoding="utf-8"?>
<!-- Generator: Adobe Illustrator 16.0.0, SVG Export Plug-In . SVG Version: 6.00 Build 0)  -->
<!DOCTYPE svg PUBLIC "-//W3C//DTD SVG 1.1//EN" "http://www.w3.org/Graphics/SVG/1.1/DTD/svg11.dtd">
<svg version="1.1" xmlns="http://www.w3.org/2000/svg" xmlns:xlink="http://www.w3.org/1999/xlink" x="0px" y="0px" width="96px"
	 height="96px" viewBox="0 0 96 96" enable-background="new 0 0 96 96" xml:space="preserve">
<g id="Blogger" display="none">
	<path id="blogger" display="inline" fill="#F47E20" d="M96,48.001c0,26.508-21.493,48-48,48c-26.509,0-48-21.492-48-48
		C0,21.491,21.491,0,48,0C74.507,0,96,21.491,96,48.001z"/>
	<path id="blogger_1_" display="inline" fill-rule="evenodd" clip-rule="evenodd" fill="#FFFFFF" d="M71.077,46.096l-0.345-0.721
		l-0.584-0.459c-0.768-0.602-4.636,0.042-5.687-0.907c-0.734-0.683-0.842-1.906-1.066-3.561c-0.417-3.22-0.683-3.385-1.185-4.471
		c-1.828-3.867-6.766-6.78-10.162-7.181h-9.204c-7.234,0-13.152,5.928-13.152,13.169v15.356c0,7.223,5.918,13.139,13.152,13.139
		h15.122c7.234,0,13.11-5.916,13.153-13.139l0.086-10.64L71.077,46.096z M43.013,39.554h7.292c1.395,0,2.523,1.128,2.523,2.51
		c0,1.375-1.129,2.519-2.523,2.519h-7.292c-1.394,0-2.519-1.144-2.519-2.519C40.494,40.682,41.619,39.554,43.013,39.554z
		 M57.838,59.631H43.013c-1.394,0-2.519-1.141-2.519-2.51c0-1.377,1.125-2.502,2.519-2.502h14.825c1.383,0,2.507,1.125,2.507,2.502
		C60.345,58.49,59.221,59.631,57.838,59.631z"/>
</g>
<g id="Twitter">
	<path id="twit" fill="#55ACEE" d="M96,48.003c0,26.506-21.49,47.999-48,47.999c-26.509,0-48-21.492-48-47.999
		C0,21.492,21.492,0,48,0C74.51,0,96,21.492,96,48.003z"/>
	<path id="twit_1_" fill="#FFFFFF" d="M75.723,34.557c-1.789,0.792-3.711,1.329-5.727,1.569c2.057-1.234,3.641-3.188,4.385-5.517
		c-1.926,1.143-4.062,1.971-6.332,2.42c-1.818-1.939-4.412-3.148-7.277-3.148c-5.508,0-9.973,4.464-9.973,9.97
		c0,0.782,0.088,1.542,0.26,2.271c-8.287-0.415-15.637-4.384-20.552-10.416c-0.858,1.474-1.352,3.185-1.352,5.012
		c0,3.458,1.761,6.511,4.437,8.299c-1.634-0.053-3.171-0.5-4.515-1.245c-0.002,0.041-0.002,0.083-0.002,0.125
		c0,4.828,3.437,8.863,7.998,9.775c-0.838,0.23-1.718,0.35-2.627,0.35c-0.644,0-1.266-0.062-1.876-0.176
		c1.269,3.961,4.952,6.842,9.314,6.922c-3.413,2.676-7.711,4.27-12.384,4.27c-0.805,0-1.598-0.047-2.378-0.139
		c4.412,2.826,9.652,4.477,15.285,4.477c18.338,0,28.368-15.189,28.368-28.367c0-0.434-0.01-0.863-0.029-1.29
		C72.697,38.312,74.389,36.556,75.723,34.557z"/>
</g>
</svg>
