<?xml version="1.0" encoding="utf-8"?>
<!-- Generator: Adobe Illustrator 16.0.0, SVG Export Plug-In . SVG Version: 6.00 Build 0)  -->
<!DOCTYPE svg PUBLIC "-//W3C//DTD SVG 1.1//EN" "http://www.w3.org/Graphics/SVG/1.1/DTD/svg11.dtd">
<svg version="1.1" xmlns="http://www.w3.org/2000/svg" xmlns:xlink="http://www.w3.org/1999/xlink" x="0px" y="0px" width="96px"
	 height="96px" viewBox="0 0 96 96" enable-background="new 0 0 96 96" xml:space="preserve">
<g id="Blogger" display="none">
	<path id="blogger" display="inline" fill="#F47E20" d="M96,48.001c0,26.508-21.493,48-48,48c-26.509,0-48-21.492-48-48
		C0,21.491,21.491,0,48,0C74.507,0,96,21.491,96,48.001z"/>
	<path id="blogger_1_" display="inline" fill-rule="evenodd" clip-rule="evenodd" fill="#FFFFFF" d="M71.077,46.096l-0.345-0.721
		l-0.584-0.459c-0.768-0.602-4.636,0.042-5.687-0.907c-0.734-0.683-0.842-1.906-1.066-3.561c-0.417-3.22-0.683-3.385-1.185-4.471
		c-1.828-3.867-6.766-6.78-10.162-7.181h-9.204c-7.234,0-13.152,5.928-13.152,13.169v15.356c0,7.223,5.918,13.139,13.152,13.139
		h15.122c7.234,0,13.11-5.916,13.153-13.139l0.086-10.64L71.077,46.096z M43.013,39.554h7.292c1.395,0,2.523,1.128,2.523,2.51
		c0,1.375-1.129,2.519-2.523,2.519h-7.292c-1.394,0-2.519-1.144-2.519-2.519C40.494,40.682,41.619,39.554,43.013,39.554z
		 M57.838,59.631H43.013c-1.394,0-2.519-1.141-2.519-2.51c0-1.377,1.125-2.502,2.519-2.502h14.825c1.383,0,2.507,1.125,2.507,2.502
		C60.345,58.49,59.221,59.631,57.838,59.631z"/>
</g>
<g id="Twitter" display="none">
	<path id="twit" display="inline" fill="#55ACEE" d="M96,48.003c0,26.506-21.49,47.999-48,47.999c-26.509,0-48-21.492-48-47.999
		C0,21.492,21.492,0,48,0C74.51,0,96,21.492,96,48.003z"/>
	<path id="twit_1_" display="inline" fill="#FFFFFF" d="M75.723,34.557c-1.789,0.792-3.711,1.329-5.727,1.569
		c2.057-1.234,3.641-3.188,4.385-5.517c-1.926,1.143-4.062,1.971-6.332,2.42c-1.818-1.939-4.412-3.148-7.277-3.148
		c-5.508,0-9.973,4.464-9.973,9.97c0,0.782,0.088,1.542,0.26,2.271c-8.287-0.415-15.637-4.384-20.552-10.416
		c-0.858,1.474-1.352,3.185-1.352,5.012c0,3.458,1.761,6.511,4.437,8.299c-1.634-0.053-3.171-0.5-4.515-1.245
		c-0.002,0.041-0.002,0.083-0.002,0.125c0,4.828,3.437,8.863,7.998,9.775c-0.838,0.23-1.718,0.35-2.627,0.35
		c-0.644,0-1.266-0.062-1.876-0.176c1.269,3.961,4.952,6.842,9.314,6.922c-3.413,2.676-7.711,4.27-12.384,4.27
		c-0.805,0-1.598-0.047-2.378-0.139c4.412,2.826,9.652,4.477,15.285,4.477c18.338,0,28.368-15.189,28.368-28.367
		c0-0.434-0.01-0.863-0.029-1.29C72.697,38.312,74.389,36.556,75.723,34.557z"/>
</g>
<g id="Google_x2B_" display="none">
	<g display="inline">
		<path id="google" fill="#DD4B39" d="M96,48.003c0,26.506-21.49,47.999-48,47.999c-26.509,0-48-21.492-48-47.999
			C0,21.492,21.492,0,48,0C74.51,0,96,21.492,96,48.003z"/>
		<path id="google_1_" fill="#FFFFFF" d="M44.952,67.045c-4.954,0-8.531-3.133-8.531-6.898c0-3.693,4.438-6.766,9.392-6.713
			c1.155,0.014,2.232,0.201,3.209,0.518c2.688,1.869,4.615,2.922,5.16,5.057c0.104,0.43,0.158,0.875,0.158,1.33
			C54.34,64.104,51.914,67.045,44.952,67.045 M46.253,44.96c-3.323-0.101-6.484-3.72-7.058-8.084
			c-0.574-4.366,1.656-7.707,4.979-7.609c3.323,0.101,6.485,3.603,7.057,7.968C51.805,41.601,49.576,45.06,46.253,44.96
			 M53.145,51.424c-1.166-0.822-3.395-2.833-3.395-4.012c0-1.385,0.395-2.064,2.475-3.69c2.135-1.669,3.646-4.014,3.646-6.738
			c0-3.246-1.445-6.409-4.158-7.454h4.092l2.885-2.087H45.787c-5.783,0-11.229,4.383-11.229,9.458c0,5.188,3.943,9.376,9.829,9.376
			c0.41,0,0.806-0.01,1.196-0.036c-0.382,0.729-0.657,1.555-0.657,2.409c0,1.441,0.776,2.613,1.758,3.564
			c-0.742,0-1.459,0.025-2.236,0.025c-7.166,0-12.682,4.559-12.682,9.293c0,4.66,6.047,7.576,13.211,7.576
			c8.167,0,12.681-4.635,12.681-9.297C57.658,56.074,56.555,53.836,53.145,51.424 M71.92,45.34h-5.025v-5.022h-4.043v5.022H57.83
			v4.042h5.021v5.023h4.043v-5.023h5.025V45.34z"/>
	</g>
</g>
<g id="Email">
	<path id="google_3_" fill="#0F9D58" d="M96,48.003c0,26.506-21.49,47.999-48,47.999c-26.509,0-48-21.492-48-47.999
		C0,21.492,21.492,0,48,0C74.51,0,96,21.492,96,48.003z"/>
	<path fill="#FFFFFF" d="M64.801,33.192h-33.6c-2.32,0-4.179,1.88-4.179,4.2l-0.021,25.2c0,2.319,1.88,4.2,4.2,4.2h33.6
		c2.319,0,4.2-1.881,4.2-4.2v-25.2C69.001,35.073,67.12,33.192,64.801,33.192z M64.801,41.592l-16.8,10.5l-16.8-10.5v-4.2l16.8,10.5
		l16.8-10.5V41.592z"/>
</g>
</svg>
