<?xml version="1.0" encoding="utf-8"?>
<!-- Generator: Adobe Illustrator 16.0.0, SVG Export Plug-In . SVG Version: 6.00 Build 0)  -->
<!DOCTYPE svg PUBLIC "-//W3C//DTD SVG 1.1//EN" "http://www.w3.org/Graphics/SVG/1.1/DTD/svg11.dtd">
<svg version="1.1" id="Layer_1" xmlns="http://www.w3.org/2000/svg" xmlns:xlink="http://www.w3.org/1999/xlink" x="0px" y="0px"
	 width="96px" height="96px" viewBox="0 0 96 96" enable-background="new 0 0 96 96" xml:space="preserve">
<path id="blogger" fill="#F47E20" d="M96,48.001c0,26.508-21.493,48-48,48c-26.509,0-48-21.492-48-48C0,21.491,21.491,0,48,0
	C74.507,0,96,21.491,96,48.001z"/>
<path id="blogger_1_" fill-rule="evenodd" clip-rule="evenodd" fill="#FFFFFF" d="M71.077,46.096l-0.345-0.721l-0.584-0.459
	c-0.768-0.602-4.636,0.042-5.687-0.907c-0.734-0.683-0.842-1.906-1.066-3.561c-0.417-3.22-0.683-3.385-1.185-4.471
	c-1.828-3.867-6.766-6.78-10.162-7.181h-9.204c-7.234,0-13.152,5.928-13.152,13.169v15.356c0,7.223,5.918,13.139,13.152,13.139
	h15.122c7.234,0,13.11-5.916,13.153-13.139l0.086-10.64L71.077,46.096z M43.013,39.554h7.292c1.395,0,2.523,1.128,2.523,2.51
	c0,1.375-1.129,2.519-2.523,2.519h-7.292c-1.394,0-2.519-1.144-2.519-2.519C40.494,40.682,41.619,39.554,43.013,39.554z
	 M57.838,59.631H43.013c-1.394,0-2.519-1.141-2.519-2.51c0-1.377,1.125-2.502,2.519-2.502h14.825c1.383,0,2.507,1.125,2.507,2.502
	C60.345,58.49,59.221,59.631,57.838,59.631z"/>
</svg>
